<svg width="99" height="36" viewBox="0 0 99 36" fill="none" xmlns="http://www.w3.org/2000/svg">
<path d="M85.538 31.9998H61.9709C58.1934 31.9998 55.147 28.9434 55.147 25.1536V11.4614C55.147 7.67154 58.1934 4.61523 61.9709 4.61523H85.538C89.3156 4.61523 92.362 7.67154 92.362 11.4614V25.1536C92.362 28.9434 89.3156 31.9998 85.538 31.9998Z" fill="white"/>
<path d="M2.38353 26.4251V10.5323C2.38353 9.79879 2.28605 9.28533 2.0667 8.94303C1.84736 8.60072 1.48179 8.42957 0.994367 8.42957H0.287598V5.88672H0.994367C2.50539 5.88672 3.57773 6.27793 4.23575 7.08479C4.89378 7.89166 5.21061 9.01638 5.21061 10.5323V26.4251H2.38353Z" fill="white"/>
<path d="M21.1007 23.9076C19.7116 23.9076 19.6872 22.9296 19.6872 21.8049V16.4013C19.6872 14.2986 19.1023 12.7826 17.9568 11.878C16.787 10.9733 15.276 10.5332 13.375 10.5332C12.4002 10.5332 11.474 10.7288 10.5723 11.1445C9.67057 11.5601 8.93943 12.1469 8.33015 12.9782C7.72086 13.8096 7.35529 14.8365 7.23344 16.059H10.0361C10.1093 15.0321 10.4505 14.2986 11.0597 13.8096C11.669 13.3206 12.4245 13.0761 13.375 13.0761C14.423 13.0761 15.276 13.3206 15.9096 13.7851C16.5433 14.2497 16.8845 15.1299 16.8845 16.4258V17.4771H12.6682C10.7673 17.4771 9.305 17.8928 8.25703 18.7486C7.20906 19.6043 6.69727 20.729 6.69727 22.1716C6.69727 23.6142 7.20906 24.7389 8.25703 25.5702C9.28063 26.4016 10.7673 26.8172 12.6682 26.8172C13.6675 26.8172 14.5448 26.6216 15.3003 26.206C16.0559 25.7903 16.6895 25.2524 17.2013 24.5922C17.445 25.2279 17.835 25.7169 18.3711 26.0103C18.9073 26.3038 19.6384 26.4749 20.5646 26.4749H21.4419V23.9565H21.1007V23.9076ZM16.2752 22.2939C15.8853 22.9296 15.3491 23.4186 14.7154 23.7609C14.0574 24.1032 13.3994 24.2499 12.6682 24.2499C11.7665 24.2499 11.011 24.0543 10.4261 23.6631C9.84117 23.2719 9.52434 22.7584 9.52434 22.1472C9.52434 21.4137 9.8168 20.8513 10.3773 20.509C10.9379 20.1667 11.7178 19.9711 12.6682 19.9711H16.8845C16.8845 20.8758 16.6895 21.6582 16.2752 22.2939Z" fill="white"/>
<path d="M35.7719 10.875L29.5085 26.4255H26.4133L20.1499 10.875H23.1476L27.9731 22.8802L32.7986 10.875H35.7719Z" fill="white"/>
<path d="M44.6923 13.7597C44.0587 13.2952 43.2057 13.0507 42.1577 13.0507C41.2072 13.0507 40.4517 13.2952 39.8425 13.7842C39.2332 14.2732 38.892 15.0311 38.8189 16.0336H36.0161C36.138 14.8111 36.5036 13.7842 37.1129 12.9529C37.7221 12.1215 38.4777 11.5103 39.355 11.1191C40.2324 10.7279 41.1829 10.5078 42.1577 10.5078C44.0587 10.5078 45.5697 10.9479 46.7395 11.8526C47.9094 12.7573 48.4699 14.2487 48.4699 16.3759V21.7795C48.4699 22.4396 48.5186 22.9531 48.6405 23.3443C48.7624 23.7111 49.0548 23.9067 49.5179 23.9067H50.2246V26.4251H49.3473C48.4212 26.4251 47.69 26.2784 47.1539 25.9605C46.6177 25.6671 46.2277 25.1781 45.984 24.5424C45.4722 25.2025 44.8386 25.7404 44.0831 26.1561C43.3276 26.5718 42.4502 26.7674 41.451 26.7674C39.55 26.7674 38.0633 26.3517 37.0397 25.5204C36.0162 24.6891 35.48 23.5644 35.48 22.1218C35.48 20.6792 35.9918 19.5545 37.0397 18.6987C38.0877 17.843 39.55 17.4273 41.451 17.4273H45.6672V16.3759C45.6672 15.1045 45.3504 14.2243 44.6923 13.7597ZM39.2088 23.6622C39.8181 24.0534 40.5736 24.249 41.451 24.249C42.1821 24.249 42.8645 24.0778 43.4982 23.76C44.1318 23.4177 44.668 22.9286 45.0579 22.2929C45.4479 21.6572 45.6672 20.8748 45.6672 19.9701H41.451C40.5005 19.9701 39.7206 20.1413 39.1601 20.5081C38.5995 20.8748 38.3071 21.4127 38.3071 22.1462C38.3071 22.7819 38.5995 23.271 39.2088 23.6622Z" fill="white"/>
<path d="M63.2871 9.96976L63.2627 13.3439H65.8217V15.0555H63.2627L63.2871 20.7524C63.2871 21.2414 63.409 21.6082 63.6039 21.8282C63.8233 22.0483 64.1888 22.1705 64.7006 22.1705H65.6511V23.8821H64.2132C63.1896 23.8821 62.4585 23.6131 62.0198 23.0752C61.5811 22.5373 61.3618 21.7549 61.3618 20.7524V15.0555H59.6558V13.3439H61.3618V9.94531L63.2871 9.96976Z" fill="black"/>
<path d="M69.063 23.3933C68.2587 22.9042 67.6494 22.2441 67.2108 21.3883C66.7721 20.557 66.5527 19.6279 66.5527 18.601C66.5527 17.574 66.7721 16.6449 67.1864 15.8136C67.6007 14.9823 68.21 14.2977 68.9899 13.8331C69.7698 13.3441 70.7202 13.0996 71.7926 13.0996C72.8649 13.0996 73.8154 13.3441 74.5953 13.8331C75.3752 14.3221 75.9844 14.9823 76.3988 15.8136C76.8131 16.6449 77.0324 17.574 77.0324 18.601C77.0324 19.6034 76.8131 20.5325 76.3744 21.3883C75.9357 22.2196 75.302 22.9042 74.5222 23.3933C73.7179 23.8823 72.8162 24.1268 71.8169 24.1268C70.769 24.1268 69.8672 23.8823 69.063 23.3933ZM68.868 20.557C69.1605 21.1438 69.5504 21.5839 70.0622 21.9262C70.574 22.2441 71.1345 22.4152 71.7926 22.4152C72.4262 22.4152 73.0111 22.2441 73.5229 21.9262C74.0347 21.6084 74.4247 21.1438 74.6928 20.557C74.9852 19.9702 75.1314 19.3345 75.1314 18.601C75.1314 17.5496 74.839 16.6694 74.2297 16.0092C73.6204 15.3491 72.8162 15.0067 71.7926 15.0067C70.769 15.0067 69.9403 15.3491 69.3554 16.0092C68.7705 16.6694 68.4537 17.5496 68.4537 18.601C68.4293 19.3345 68.5756 19.9702 68.868 20.557Z" fill="black"/>
<path d="M81.6141 23.7356C81.0049 23.4666 80.5174 23.0998 80.1031 22.6108V27.8677H78.2021V13.3441H80.1031V14.7133C80.9561 13.6375 82.1503 13.0996 83.6613 13.0996C84.6362 13.0996 85.4892 13.3441 86.2203 13.8331C86.9515 14.3221 87.4876 14.9823 87.8776 15.8136C88.2431 16.6449 88.4381 17.574 88.4381 18.601C88.4381 19.6034 88.2431 20.5326 87.8288 21.3883C87.4389 22.2196 86.854 22.9042 86.1228 23.3933C85.3917 23.8823 84.5631 24.1268 83.6613 24.1268C82.9058 24.1268 82.2234 23.9801 81.6141 23.7356ZM80.9805 21.3394C81.5654 22.0485 82.394 22.3908 83.4176 22.3908C83.9782 22.3908 84.49 22.2196 84.953 21.9018C85.4161 21.5595 85.806 21.1194 86.0741 20.5326C86.3665 19.9457 86.5128 19.31 86.5128 18.5765C86.5128 17.9164 86.3665 17.3051 86.0741 16.7672C85.7816 16.2293 85.4161 15.7892 84.953 15.4713C84.49 15.1534 83.9782 15.0067 83.4176 15.0067C82.3696 15.0067 81.5654 15.3491 80.9805 16.0092C80.3956 16.6694 80.1031 17.5251 80.1031 18.601C80.1031 19.7257 80.3956 20.6304 80.9805 21.3394Z" fill="black"/>
</svg>
